# xmcd CD database file
#
# Track frame offsets:
#	150
#	19022
#	35962
#	56177
#	73751
#	92006
#	107935
#	122844
#	141954
#	164466
#	186765
#	207327
#
# Disc length: 3049 seconds
#
# Revision: 0
# Processed by: cddbd v1.5.2PL0 Copyright (c) Steve Scherf et al.
# Submitted via: CDex 1.70beta2
#
DISCID=b90be70c
DTITLE=Bob Bowles - Thick and Thin
DYEAR=2008
DGENRE=Blues
TTITLE0=Hungry For Your Love
TTITLE1=Oh My Child
TTITLE2=Don't Give Up
TTITLE3=I Had To Let You Go
TTITLE4=Thick and Thin
TTITLE5=I Love You
TTITLE6=Make A Change
TTITLE7=You Don't Have To Say A Word
TTITLE8=Long Night
TTITLE9=Think Positive
TTITLE10=I Surrender
TTITLE11=Amazing Grace
EXTD=YEAR: 2008
EXTT0=
EXTT1=
EXTT2=
EXTT3=
EXTT4=
EXTT5=
EXTT6=
EXTT7=
EXTT8=
EXTT9=
EXTT10=
EXTT11=
PLAYORDER=
